<svg xmlns="http://www.w3.org/2000/svg" viewBox="0 0 1080 1080"><defs><style>.cls-1{fill:#db9f8d;}.cls-1,.cls-2,.cls-3,.cls-4,.cls-5,.cls-6,.cls-7{stroke:#fff;stroke-miterlimit:10;stroke-width:14px;}.cls-1,.cls-2,.cls-3,.cls-4,.cls-5,.cls-7{stroke-linecap:round;}.cls-2{fill:#bdf2d5;}.cls-3{fill:#bf8049;}.cls-4{fill:#d96a6a;}.cls-5{fill:#207589;}.cls-6,.cls-7{fill:#fff;}</style></defs><title>sketch1</title><g id="Camada_16" data-name="Camada 16"><polygon class="cls-1" points="734.36 886.84 734.08 886.33 734.09 886.33 734.36 886.84"/><polygon class="cls-1" points="838.06 921.24 752.33 921.24 734.36 886.84 820.08 886.84 838.06 921.24"/><path class="cls-2" d="M678.2,974.92H895.13V921.24h-178a43.44,43.44,0,0,0-27.72,9.55c-7.1,5.91-11.49,14.08-11.49,23.09v32.63h.3V974.92Z"/><path class="cls-3" d="M400.47,747.24c-36.37,38.1-75.31,74-115,108.73l-20.2,19.18-8.35,7.93s-50.12-84.52-64-245.15l-9-137.19c1.6,7.78,3.34,15.45,5.18,23a.1.1,0,0,0,0,.07,831.38,831.38,0,0,0,34.39,107.85h0l35.33-18.22,13.62-7c.43,1,.89,1.94,1.37,3,7.2,15.49,18.74,41.33,19.79,43a71.92,71.92,0,0,0,11.18,14.29c9,8.74,20.53,14.16,33.81,9.89,2.83-.91,7.92-4.44,13.76-9.06Z"/><polygon class="cls-4" points="734.36 886.84 734.08 886.33 734.09 886.33 734.36 886.84"/><path class="cls-4" d="M657.72,511.26l1.19.33-1.19.38-71.67,23.15,0,0-1,.31c.33-.31.68-.61,1-.91Z"/><path class="cls-4" d="M895.13,886.84,709.66,552.17s-19-31.65-50.75-40.58l-1.19.37-71.67,23.16h0l-1,.32a183.34,183.34,0,0,0-16.12,16.72q-8.5,10-17,19.94Q497.11,636.55,442.27,701q-20.2,23.71-41.81,46.26c-36.35,38.11-75.31,74-115,108.73l-20.2,19.17-8.35,7.93s38.84,65,79,87.07c36.71,20.16,84.52,28.23,123.65,12.24,25.36-10.35,43.94-32.75,57.69-56.52,25-43.32,44.68-89.84,66.91-134.62,16.66-33.52,37.73-77.56,37.73-77.56l56.3,173.16Z"/><polygon class="cls-5" points="802.4 272.81 721.14 491.49 658.91 511.59 657.72 511.97 586.05 535.12 586.03 535.14 585.04 535.45 501.01 562.59 495.33 540.36 701.86 473.77 779.29 265.52 802.4 272.81"/><path class="cls-3" d="M250.4,363.14c-.65-.45-1.29-.9-2-1.32A4.61,4.61,0,0,1,250.4,363.14Z"/><path class="cls-5" d="M452.49,174.89c-2.16,17.9-14.58,30.43-12.07,49.77,2.46,18.91,12.11,38.12,6.83,57.4-3.8,13.88-15.31,25.76-14.58,40.13.35,7.27,3.91,13.94,6.25,20.84a65.46,65.46,0,0,1,.58,39.84c-1.22,4-5.81,35-61,35H284.22c-3.56-8-7-15.87-10.33-23.47-.29-.66-.56-1.31-.85-1.95a87.74,87.74,0,0,0-4.94-9.69l17.7-41.71.06,0,.18,0,.12,0c2.15.59,5,1.32,8.5,2.07l1.94.41,1.77.36c.79.15,1.62.31,2.47.45,1.51.27,3.09.54,4.74.79,1.28.2,2.6.38,3.95.56,2.12.26,4.31.52,6.57.72,1.56.14,3.15.27,4.78.37a6.06,6.06,0,0,1,.62,0c1,.06,2.11.1,3.17.15a140.67,140.67,0,0,0,18.12-.49l2.1-.21a111.29,111.29,0,0,0,12.86-2.23l1.4-.35c.92-.24,1.86-.47,2.78-.74l1.37-.4c1.85-.57,3.68-1.18,5.49-1.86.46-.17.91-.33,1.36-.51l1.35-.55c1.79-.74,3.57-1.56,5.33-2.44.42-.21.85-.43,1.27-.66.26-.13.53-.26.78-.41.44-.24.88-.48,1.31-.73s.6-.33.9-.51.62-.36.92-.55q2.69-1.62,5.27-3.49l1-.72a70.9,70.9,0,0,0,8.15-7.18c.37-.38.74-.76,1.1-1.16A73.54,73.54,0,0,0,404.6,313c.34-.48.66-1,1-1.46A82.31,82.31,0,0,0,410,303.7c.29-.56.57-1.14.84-1.72,1.16-2.44,2.24-5,3.23-7.68,29.66-79.84,4.56-118.6,4.56-118.6S389,239.39,320.62,230.29c0,0-18.25-27.39-31.92-2.29s9.11,36.48,9.11,36.48,6,11.63-13.4,32.52c-23,24.73-14,34.77-25.36,50.73a4.67,4.67,0,0,1-.35.46c-3.41,4.19-12.2,7.8-17.62,9.79-19-7.81-40.14-1.37-53.42,18.24-7,10.3-11.82,24.25-13,41.67H166.5S99.22,410.51,104,358.15c1.34-14.89.61-21.18,5.59-30.47s15-14.24,21.68-22.38c5.93-7.27,10.24-16.27,10.19-25.64-.05-9.63-4.62-18.82-4.7-28.47a30.91,30.91,0,0,1,5-17c5.74-8.87,15.56-14.12,23.12-21.53,15.48-15.2,17.54-39.23,28.29-57.57,7.66-13.1,18.58-24.82,32.6-30.68,8.72-3.66,18.27-4.94,27.24-7.87,20.9-6.84,38.17-22.45,59.29-28.56,23.52-6.83,48.91-.54,69.36,12A123.11,123.11,0,0,1,409,123.6c1.54,1.76,9.91,15.45,11.92,15.61C438.4,140.56,454.7,156.74,452.49,174.89Z"/><path class="cls-1" d="M414.11,294.3c-1,2.69-2.07,5.24-3.23,7.68-.27.58-.55,1.16-.84,1.72a82.31,82.31,0,0,1-4.47,7.82c-.32.5-.63,1-1,1.46a73.54,73.54,0,0,1-7.11,8.93c-.36.4-.73.78-1.1,1.16a70.9,70.9,0,0,1-8.15,7.18l-1,.72q-2.58,1.88-5.27,3.49c-.3.19-.61.37-.92.55s-.6.35-.9.51-.87.49-1.31.73c-.25.15-.52.28-.78.41-.42.23-.85.45-1.27.66-1.76.88-3.54,1.7-5.33,2.44l-1.35.55c-.45.18-.9.34-1.36.51-1.81.68-3.64,1.29-5.49,1.86l-1.37.4c-.92.27-1.86.5-2.78.74l-1.4.35a111.29,111.29,0,0,1-12.86,2.23l-2.1.21a140.67,140.67,0,0,1-18.12.49c-1.06-.05-2.13-.09-3.17-.15a6.06,6.06,0,0,0-.62,0c-1.63-.1-3.22-.23-4.78-.37-2.26-.2-4.45-.46-6.57-.72-1.35-.18-2.67-.36-3.95-.56-1.65-.25-3.23-.52-4.74-.79-.85-.14-1.68-.3-2.47-.45l-1.77-.36-1.94-.41c-3.46-.75-6.35-1.48-8.5-2.07l-.12,0-.18,0-.06,0-17.7,41.71c-1.06-1.8-2.18-3.51-3.32-5.12a63.33,63.33,0,0,0-9.42-10.59l-.71-.64a49.44,49.44,0,0,0-4.25-3.29,4.61,4.61,0,0,0-2-1.32,48,48,0,0,0-7.37-3.84c5.42-2,14.21-5.6,17.62-9.79a4.67,4.67,0,0,0,.35-.46c11.41-16,2.39-26,25.36-50.73,19.42-20.89,13.4-32.52,13.4-32.52S275,253.08,288.7,228s31.92,2.29,31.92,2.29c68.4,9.1,98.05-54.59,98.05-54.59S443.77,214.46,414.11,294.3Z"/><path class="cls-3" d="M350.87,562.86l-13.58,7.65-1.09.62h0l-28.86,16.28-11.89,6.69,0,0L286.85,599l-14.43,7.42-13.62,7-35.33,18.22h0a831.83,831.83,0,0,1-34.38-107.84.09.09,0,0,1,0-.08q-2.75-11.25-5.18-23v-.08a498.39,498.39,0,0,1-8.37-54.92c-.56-12.86-.62-19.2-.62-19.2s-.4-5.85-.22-8.65c1.21-17.42,6-31.37,13-41.67,13.28-19.61,34.43-26.05,53.42-18.24a48,48,0,0,1,7.37,3.84c.66.42,1.3.87,2,1.32a49.44,49.44,0,0,1,4.25,3.29l.71.64a63.33,63.33,0,0,1,9.42,10.59c1.14,1.61,2.26,3.32,3.32,5.12a87.74,87.74,0,0,1,4.94,9.69c.29.64.56,1.29.85,1.95,3.31,7.6,6.77,15.48,10.33,23.47q1.9,4.31,3.85,8.65C317.44,492.29,350.87,562.86,350.87,562.86Z"/><path class="cls-1" d="M410.88,302c-32,67.91-119.73,40.82-124.84,39.16C304.88,346.31,381.84,363.09,410.88,302Z"/><path class="cls-6" d="M905.61,921.24H895.13v53.68H944.8v-21C944.8,935.86,927.25,921.24,905.61,921.24Z"/><polygon class="cls-7" points="678.2 974.92 678.2 984.86 944.8 984.86 944.8 974.92 895.13 974.92 678.2 974.92"/><polygon class="cls-7" points="678.2 986.51 678.2 994.79 944.8 994.8 944.8 984.86 678.2 984.86 678.2 986.51"/><path class="cls-1" d="M604.35,492.63l-3.68,2.22c-17.55,10.75-40.59,8.4-60.18,6.29a2.56,2.56,0,0,0-3.18,1.63C529.18,516,514,521.94,499.13,522.92c-4.67.31-9.92,8.74-12.82,11.79q-9,9.39-18,18.73-17.41,18.06-35.09,35.91c-23.53,23.8-22.16,24.07-46.17,47.38-3.49,3.41-13.55,12.83-23.81,21.71-3.71,3.2-7.45,6.34-10.93,9.07-5.85,4.62-10.93,8.15-13.76,9.06-13.28,4.27-24.82-1.14-33.82-9.88a72.82,72.82,0,0,1-11.17-14.29c-1.05-1.71-12.59-27.56-19.79-43-.48-1.05-1-2-1.38-3l14.44-7.44,8.55-4.82h0l11.89-6.71,28.86-16.28h0l1.09-.61,3.63,12Q364,567.93,387.07,553.4q42.07-26.45,84.12-52.95C481.49,494,492,487.73,502.11,481c18.13-12.09,40.29-17.85,61.95-18.13,11-.15,27.8,2.9,40.12,10.09A11.48,11.48,0,0,1,604.35,492.63Z"/><line class="cls-4" x1="605.08" y1="661.98" x2="621.9" y2="713.68"/></g></svg>