<?xml version="1.0" encoding="utf-8"?>
<!-- Generator: Adobe Illustrator 23.0.1, SVG Export Plug-In . SVG Version: 6.00 Build 0)  -->
<svg version="1.1" xmlns="http://www.w3.org/2000/svg" xmlns:xlink="http://www.w3.org/1999/xlink" x="0px" y="0px"
	 viewBox="0 0 1080 1080" style="enable-background:new 0 0 1080 1080;" xml:space="preserve">
<style type="text/css">
	.st0{display:none;}
	.st1{display:inline;}
	.st2{fill:#B9D6C7;}
	.st3{fill:none;stroke:#1F0F10;stroke-width:2.5;stroke-linecap:round;stroke-linejoin:round;stroke-miterlimit:10;}
	.st4{fill:#D2D9BA;}
	.st5{fill:#BDF2D5;}
	.st6{fill:#D96A6A;}
	.st7{fill:#0F4256;}
	.st8{fill:#DB9F8D;}
	.st9{fill:#BF8049;}
	.st10{fill:#FFFFFF;}
	.st11{fill:none;}
	.st12{display:inline;fill:#D2D9BA;}
	.st13{fill:#1F0F10;}
	.st14{fill:none;stroke:#000000;stroke-width:14;stroke-miterlimit:10;}
	.st15{fill:none;stroke:#0F4256;stroke-width:0.5;stroke-miterlimit:10;}
	.st16{fill:none;stroke:#FFFFFF;stroke-width:14;stroke-miterlimit:10;}
</style>
<g id="Camada_6" class="st0">
</g>
<g id="old">
	<g id="Camada_3" class="st0">
	</g>
	<g id="Camada_2">
	</g>
	<g id="contornooo">
	</g>
	<g id="Camada_4">
	</g>
	<g id="_x3F_">
	</g>
</g>
<g id="Camada_7">
	<g id="Camada_11">
		<g>
			<polygon class="st8" points="825.35,925.54 744.87,925.54 727.74,892.77 808.22,892.77 			"/>
			<path class="st5" d="M675.28,975.93L675,956.18c0-8.46,4.12-16.12,10.79-21.67c6.65-5.53,15.86-8.97,26.02-8.97h196.64v50.39
				H675.28"/>
			<path class="st9" d="M420.09,771.85l-98.8,124.48l-17.52,21.95c0,0-71.04-107.89-84.09-258.67
				c-9.09-105.03-12.23-171.98-13.31-202.93c6.76,93.55,25.9,208.37,25.9,208.37l47.18-33.26c4.17,9.75,12.76,26.18,13.87,28.29
				c7.99,15.34,22.1,30.54,41.21,25.77c4.38-1.1,14.55-8.13,24.56-15.67L420.09,771.85z"/>
			<path class="st8" d="M598.32,527.84c-1.2,0.62-2.41,1.24-3.62,1.88c-17.34,9.11-39.06,5.42-57.53,2.21
				c-0.58-0.1-1.2-0.2-1.76,0.02c-0.6,0.24-1,0.8-1.37,1.33c-8.53,12-23.29,16.75-37.51,16.75c-4.45,0-9.96,7.68-12.9,10.38
				c-6.06,5.57-12.14,11.13-18.23,16.66c-11.78,10.69-23.64,21.33-35.57,31.9c-23.83,21.12-22.54,21.45-46.79,42.09
				c-3.53,3.02-13.66,11.33-23.97,19.12c-10.01,7.54-20.18,14.56-24.56,15.67c-19.1,4.77-33.22-10.43-41.21-25.77
				c-1.1-2.11-9.7-18.54-13.87-28.29l20.36-14.36l17.18-12.11l24.22-17.08l1.43,8.43c15.2-8.24,30.42-16.46,45.62-24.7
				c27.73-15,55.46-30.02,83.18-45.02c10.18-5.52,20.53-10.77,30.56-16.55c17.97-10.34,39.36-14.43,59.94-13.34
				c10.46,0.54,26.22,4.49,37.46,12.08C606.23,513.72,605.63,524.01,598.32,527.84z"/>
			<path class="st6" d="M878.91,891.99H675.28l-52.85-161.66c0,0-19.77,41.13-35.41,72.42c-20.88,41.8-39.31,85.21-62.81,125.66
				c-12.9,22.2-30.36,43.12-54.16,52.77c-36.73,14.92-82.91,9.61-116.07-11.42c-19.76-12.54-50.21-51.34-50.21-51.34l17.52-22.09
				l99.06-124.03l-0.26-0.45l152.6-192.3c5.47-6.36,10.83-11.81,16.07-16.45l0.02-0.02l67.28-21.73
				c30.48,7.91,48.76,38.19,48.76,38.19L878.91,891.99z"/>
			<polygon class="st7" points="791.86,316.86 715.59,522.13 656.05,541.36 588.78,563.09 588.76,563.11 508.96,588.88 503.63,568 
				697.5,505.5 770.18,310.02 			"/>
			<path class="st7" d="M488.13,183.49c-2.25,18.64-15.19,31.69-12.58,51.82c2.56,19.69,12.61,39.7,7.1,59.78
				c-3.95,14.44-15.93,26.83-15.17,41.78c0.37,7.57,4.07,14.52,6.5,21.7c4.52,13.32,4.71,28.06,0.61,41.5
				c-1.26,4.15-6.05,36.47-63.56,36.47H300.84c-4.12-11.5-8.13-22.87-11.91-33.72l21.48-47.5c0,0,106.88,35.63,137.75-47.5
				s4.74-123.5,4.74-123.5s-30.87,66.33-102.11,56.83c0,0-19.01-28.51-33.25-2.38c-14.25,26.13,9.5,38.01,9.5,38.01
				s6.26,12.09-13.94,33.86c-23.94,25.77-14.55,36.22-26.43,52.85c-3.59,5.02-8.41,8.01-13.88,9.98
				c-26.97-29.1-67.35-5.7-67.37,63.08c-9.48,0-15.12,0-15.12,0s-70.07-7.69-65.13-62.22c1.4-15.5,0.64-22.06,5.81-31.73
				c5.08-9.53,15.65-14.83,22.59-23.32c6.19-7.57,10.66-16.93,10.62-26.69c-0.05-10.04-4.82-19.6-4.9-29.64
				c-0.05-6.23,1.77-12.47,5.16-17.69c6-9.23,16.21-14.7,24.08-22.41c16.13-15.82,18.26-40.85,29.46-59.95
				c7.99-13.65,19.37-25.85,33.96-31.96c9.08-3.81,19.01-5.13,28.37-8.19c21.76-7.12,39.75-23.38,61.74-29.75
				c24.5-7.1,50.94-0.54,72.23,12.54c10.77,6.62,20.21,15.09,28.57,24.54c1.6,1.82,10.34,16.09,12.42,16.24
				C473.46,147.73,490.43,164.58,488.13,183.49z"/>
			<path class="st8" d="M448.16,307.82c-30.87,83.13-137.75,47.5-137.75,47.5l-21.48,47.5c-0.23-0.68-0.47-1.37-0.7-2.04
				c-4.09-11.77-9.42-20.84-15.44-27.33c5.47-1.97,10.29-4.96,13.88-9.98c11.88-16.63,2.49-27.08,26.43-52.85
				c20.21-21.76,13.94-33.86,13.94-33.86s-23.75-11.88-9.5-38.01c14.24-26.13,33.25,2.38,33.25,2.38
				c71.24,9.5,102.11-56.83,102.11-56.83S479.04,224.69,448.16,307.82z"/>
			<path class="st9" d="M353.52,579.55l-12.31,8.67l-24.22,17.08l-17.18,12.11l-20.36,14.36l-47.18,33.26
				c0,0-19.14-114.83-25.9-208.37c-0.47-13.48-0.53-20.13-0.53-20.13h-0.42c0.02-68.78,40.4-92.18,67.37-63.08
				c6.02,6.48,11.35,15.56,15.44,27.33c0.23,0.67,0.47,1.35,0.7,2.04c3.78,10.85,7.79,22.21,11.91,33.72
				C325.47,505.52,353.52,579.55,353.52,579.55z"/>
			<path d="M206.37,456.68c-0.19-2.58-0.36-5.15-0.53-7.69c-0.28-4.29-0.42-8.44-0.42-12.44h0.42
				C205.84,436.55,205.91,443.2,206.37,456.68z"/>
			<path class="st10" d="M955.08,956.18v19.76h-46.63v-50.39h9.84C938.6,925.54,955.08,939.26,955.08,956.18z"/>
			<rect x="675.28" y="975.93" class="st10" width="279.8" height="13.99"/>
		</g>
	</g>
	<g id="Camada_8">
		<g>
			<polygon class="st14" points="825.35,925.54 744.87,925.54 727.74,892.77 808.22,892.77 			"/>
			<path class="st14" d="M675.28,975.93L675,956.18c0-8.46,4.12-16.12,10.79-21.67c6.65-5.53,15.86-8.97,26.02-8.97h196.64v50.39
				H675.28"/>
			<path class="st14" d="M420.09,771.85l-98.8,124.48l-17.52,21.95c0,0-71.04-107.89-84.09-258.67
				c-9.09-105.03-12.23-171.98-13.31-202.93c6.76,93.55,25.9,208.37,25.9,208.37l47.18-33.26c4.17,9.75,12.76,26.18,13.87,28.29
				c7.99,15.34,22.1,30.54,41.21,25.77c4.38-1.1,14.55-8.13,24.56-15.67L420.09,771.85z"/>
			<path class="st14" d="M598.32,527.84c-1.2,0.62-2.41,1.24-3.62,1.88c-17.34,9.11-39.06,5.42-57.53,2.21
				c-0.58-0.1-1.2-0.2-1.76,0.02c-0.6,0.24-1,0.8-1.37,1.33c-8.53,12-23.29,16.75-37.51,16.75c-4.45,0-9.96,7.68-12.9,10.38
				c-6.06,5.57-12.14,11.13-18.23,16.66c-11.78,10.69-23.64,21.33-35.57,31.9c-23.83,21.12-22.54,21.45-46.79,42.09
				c-3.53,3.02-13.66,11.33-23.97,19.12c-10.01,7.54-20.18,14.56-24.56,15.67c-19.1,4.77-33.22-10.43-41.21-25.77
				c-1.1-2.11-9.7-18.54-13.87-28.29l20.36-14.36l17.18-12.11l24.22-17.08l1.43,8.43c15.2-8.24,30.42-16.46,45.62-24.7
				c27.73-15,55.46-30.02,83.18-45.02c10.18-5.52,20.53-10.77,30.56-16.55c17.97-10.34,39.36-14.43,59.94-13.34
				c10.46,0.54,26.22,4.49,37.46,12.08C606.23,513.72,605.63,524.01,598.32,527.84z"/>
			<path class="st14" d="M878.91,891.99H675.28l-52.85-161.66c0,0-19.77,41.13-35.41,72.42c-20.88,41.8-39.31,85.21-62.81,125.66
				c-12.9,22.2-30.36,43.12-54.16,52.77c-36.73,14.92-82.91,9.61-116.07-11.42c-19.76-12.54-50.21-51.34-50.21-51.34l17.52-22.09
				l99.06-124.03l-0.26-0.45l152.6-192.3c5.47-6.36,10.83-11.81,16.07-16.45l0.02-0.02l67.28-21.73
				c30.48,7.91,48.76,38.19,48.76,38.19L878.91,891.99z"/>
			<polygon class="st14" points="791.86,316.86 715.59,522.13 656.05,541.36 588.78,563.09 588.76,563.11 508.96,588.88 503.63,568 
				697.5,505.5 770.18,310.02 			"/>
			<path class="st14" d="M488.13,183.49c-2.25,18.64-15.19,31.69-12.58,51.82c2.56,19.69,12.61,39.7,7.1,59.78
				c-3.95,14.44-15.93,26.83-15.17,41.78c0.37,7.57,4.07,14.52,6.5,21.7c4.52,13.32,4.71,28.06,0.61,41.5
				c-1.26,4.15-6.05,36.47-63.56,36.47H300.84c-4.12-11.5-8.13-22.87-11.91-33.72l21.48-47.5c0,0,106.88,35.63,137.75-47.5
				s4.74-123.5,4.74-123.5s-30.87,66.33-102.11,56.83c0,0-19.01-28.51-33.25-2.38c-14.25,26.13,9.5,38.01,9.5,38.01
				s6.26,12.09-13.94,33.86c-23.94,25.77-14.55,36.22-26.43,52.85c-3.59,5.02-8.41,8.01-13.88,9.98
				c-26.97-29.1-67.35-5.7-67.37,63.08c-9.48,0-15.12,0-15.12,0s-70.07-7.69-65.13-62.22c1.4-15.5,0.64-22.06,5.81-31.73
				c5.08-9.53,15.65-14.83,22.59-23.32c6.19-7.57,10.66-16.93,10.62-26.69c-0.05-10.04-4.82-19.6-4.9-29.64
				c-0.05-6.23,1.77-12.47,5.16-17.69c6-9.23,16.21-14.7,24.08-22.41c16.13-15.82,18.26-40.85,29.46-59.95
				c7.99-13.65,19.37-25.85,33.96-31.96c9.08-3.81,19.01-5.13,28.37-8.19c21.76-7.12,39.75-23.38,61.74-29.75
				c24.5-7.1,50.94-0.54,72.23,12.54c10.77,6.62,20.21,15.09,28.57,24.54c1.6,1.82,10.34,16.09,12.42,16.24
				C473.46,147.73,490.43,164.58,488.13,183.49z"/>
			<path class="st14" d="M448.16,307.82c-30.87,83.13-137.75,47.5-137.75,47.5l-21.48,47.5c-0.23-0.68-0.47-1.37-0.7-2.04
				c-4.09-11.77-9.42-20.84-15.44-27.33c5.47-1.97,10.29-4.96,13.88-9.98c11.88-16.63,2.49-27.08,26.43-52.85
				c20.21-21.76,13.94-33.86,13.94-33.86s-23.75-11.88-9.5-38.01c14.24-26.13,33.25,2.38,33.25,2.38
				c71.24,9.5,102.11-56.83,102.11-56.83S479.04,224.69,448.16,307.82z"/>
			<path class="st14" d="M353.52,579.55l-12.31,8.67l-24.22,17.08l-17.18,12.11l-20.36,14.36l-47.18,33.26
				c0,0-19.14-114.83-25.9-208.37c-0.47-13.48-0.53-20.13-0.53-20.13h-0.42c0.02-68.78,40.4-92.18,67.37-63.08
				c6.02,6.48,11.35,15.56,15.44,27.33c0.23,0.67,0.47,1.35,0.7,2.04c3.78,10.85,7.79,22.21,11.91,33.72
				C325.47,505.52,353.52,579.55,353.52,579.55z"/>
			<path class="st14" d="M206.37,456.68c-0.19-2.58-0.36-5.15-0.53-7.69c-0.28-4.29-0.42-8.44-0.42-12.44h0.42
				C205.84,436.55,205.91,443.2,206.37,456.68z"/>
			<path class="st14" d="M955.08,956.18v19.76h-46.63v-50.39h9.84C938.6,925.54,955.08,939.26,955.08,956.18z"/>
			<rect x="675.28" y="975.93" class="st14" width="279.8" height="13.99"/>
		</g>
	</g>
	<g id="strokes" class="st0">
		<g class="st1">
			<polygon class="st15" points="825.35,925.54 744.87,925.54 727.74,892.77 808.22,892.77 			"/>
			<path class="st15" d="M675.28,975.93L675,956.18c0-8.46,4.12-16.12,10.79-21.67c6.65-5.53,15.86-8.97,26.02-8.97h196.64v50.39
				H675.28"/>
			<path class="st15" d="M420.09,771.85l-98.8,124.48l-17.52,21.95c0,0-71.04-107.89-84.09-258.67
				c-9.09-105.03-12.23-171.98-13.31-202.93c6.76,93.55,25.9,208.37,25.9,208.37l47.18-33.26c4.17,9.75,12.76,26.18,13.87,28.29
				c7.99,15.34,22.1,30.54,41.21,25.77c4.38-1.1,14.55-8.13,24.56-15.67L420.09,771.85z"/>
			<path class="st15" d="M598.32,527.84c-1.2,0.62-2.41,1.24-3.62,1.88c-17.34,9.11-39.06,5.42-57.53,2.21
				c-0.58-0.1-1.2-0.2-1.76,0.02c-0.6,0.24-1,0.8-1.37,1.33c-8.53,12-23.29,16.75-37.51,16.75c-4.45,0-9.96,7.68-12.9,10.38
				c-6.06,5.57-12.14,11.13-18.23,16.66c-11.78,10.69-23.64,21.33-35.57,31.9c-23.83,21.12-22.54,21.45-46.79,42.09
				c-3.53,3.02-13.66,11.33-23.97,19.12c-10.01,7.54-20.18,14.56-24.56,15.67c-19.1,4.77-33.22-10.43-41.21-25.77
				c-1.1-2.11-9.7-18.54-13.87-28.29l20.36-14.36l17.18-12.11l24.22-17.08l1.43,8.43c15.2-8.24,30.42-16.46,45.62-24.7
				c27.73-15,55.46-30.02,83.18-45.02c10.18-5.52,20.53-10.77,30.56-16.55c17.97-10.34,39.36-14.43,59.94-13.34
				c10.46,0.54,26.22,4.49,37.46,12.08C606.23,513.72,605.63,524.01,598.32,527.84z"/>
			<path class="st15" d="M878.91,891.99H675.28l-52.85-161.66c0,0-19.77,41.13-35.41,72.42c-20.88,41.8-39.31,85.21-62.81,125.66
				c-12.9,22.2-30.36,43.12-54.16,52.77c-36.73,14.92-82.91,9.61-116.07-11.42c-19.76-12.54-50.21-51.34-50.21-51.34l17.52-22.09
				l99.06-124.03l-0.26-0.45l152.6-192.3c5.47-6.36,10.83-11.81,16.07-16.45l0.02-0.02l67.28-21.73
				c30.48,7.91,48.76,38.19,48.76,38.19L878.91,891.99z"/>
			<polygon class="st15" points="791.86,316.86 715.59,522.13 656.05,541.36 588.78,563.09 588.76,563.11 508.96,588.88 503.63,568 
				697.5,505.5 770.18,310.02 			"/>
			<path class="st15" d="M488.13,183.49c-2.25,18.64-15.19,31.69-12.58,51.82c2.56,19.69,12.61,39.7,7.1,59.78
				c-3.95,14.44-15.93,26.83-15.17,41.78c0.37,7.57,4.07,14.52,6.5,21.7c4.52,13.32,4.71,28.06,0.61,41.5
				c-1.26,4.15-6.05,36.47-63.56,36.47H300.84c-4.12-11.5-8.13-22.87-11.91-33.72l21.48-47.5c0,0,106.88,35.63,137.75-47.5
				s4.74-123.5,4.74-123.5s-30.87,66.33-102.11,56.83c0,0-19.01-28.51-33.25-2.38c-14.25,26.13,9.5,38.01,9.5,38.01
				s6.26,12.09-13.94,33.86c-23.94,25.77-14.55,36.22-26.43,52.85c-3.59,5.02-8.41,8.01-13.88,9.98
				c-26.97-29.1-67.35-5.7-67.37,63.08c-9.48,0-15.12,0-15.12,0s-70.07-7.69-65.13-62.22c1.4-15.5,0.64-22.06,5.81-31.73
				c5.08-9.53,15.65-14.83,22.59-23.32c6.19-7.57,10.66-16.93,10.62-26.69c-0.05-10.04-4.82-19.6-4.9-29.64
				c-0.05-6.23,1.77-12.47,5.16-17.69c6-9.23,16.21-14.7,24.08-22.41c16.13-15.82,18.26-40.85,29.46-59.95
				c7.99-13.65,19.37-25.85,33.96-31.96c9.08-3.81,19.01-5.13,28.37-8.19c21.76-7.12,39.75-23.38,61.74-29.75
				c24.5-7.1,50.94-0.54,72.23,12.54c10.77,6.62,20.21,15.09,28.57,24.54c1.6,1.82,10.34,16.09,12.42,16.24
				C473.46,147.73,490.43,164.58,488.13,183.49z"/>
			<path class="st15" d="M448.16,307.82c-30.87,83.13-137.75,47.5-137.75,47.5l-21.48,47.5c-0.23-0.68-0.47-1.37-0.7-2.04
				c-4.09-11.77-9.42-20.84-15.44-27.33c5.47-1.97,10.29-4.96,13.88-9.98c11.88-16.63,2.49-27.08,26.43-52.85
				c20.21-21.76,13.94-33.86,13.94-33.86s-23.75-11.88-9.5-38.01c14.24-26.13,33.25,2.38,33.25,2.38
				c71.24,9.5,102.11-56.83,102.11-56.83S479.04,224.69,448.16,307.82z"/>
			<path class="st15" d="M353.52,579.55l-12.31,8.67l-24.22,17.08l-17.18,12.11l-20.36,14.36l-47.18,33.26
				c0,0-19.14-114.83-25.9-208.37c-0.47-13.48-0.53-20.13-0.53-20.13h-0.42c0.02-68.78,40.4-92.18,67.37-63.08
				c6.02,6.48,11.35,15.56,15.44,27.33c0.23,0.67,0.47,1.35,0.7,2.04c3.78,10.85,7.79,22.21,11.91,33.72
				C325.47,505.52,353.52,579.55,353.52,579.55z"/>
			<path class="st15" d="M206.37,456.68c-0.19-2.58-0.36-5.15-0.53-7.69c-0.28-4.29-0.42-8.44-0.42-12.44h0.42
				C205.84,436.55,205.91,443.2,206.37,456.68z"/>
			<path class="st15" d="M955.08,956.18v19.76h-46.63v-50.39h9.84C938.6,925.54,955.08,939.26,955.08,956.18z"/>
			<rect x="675.28" y="975.93" class="st15" width="279.8" height="13.99"/>
		</g>
	</g>
</g>
<g id="Camada_12">
	<g id="Camada_15">
	</g>
	<g id="Camada_13">
	</g>
	<g id="Camada_14">
	</g>
</g>
</svg>
