<svg xmlns="http://www.w3.org/2000/svg" viewBox="0 0 1080 1080"><defs><style>.cls-1{fill:#db9f8d;}.cls-1,.cls-2,.cls-3,.cls-4,.cls-5,.cls-6,.cls-7,.cls-8{stroke:#fff;stroke-width:14px;}.cls-1,.cls-2,.cls-3,.cls-4,.cls-5,.cls-6,.cls-8{stroke-linecap:round;}.cls-1,.cls-2,.cls-3,.cls-4,.cls-5{stroke-linejoin:round;}.cls-2{fill:none;}.cls-3{fill:#207589;}.cls-4{fill:#bf8049;}.cls-5{fill:#d96a6a;}.cls-6{fill:#bdf2d5;}.cls-6,.cls-7,.cls-8{stroke-miterlimit:10;}.cls-7,.cls-8{fill:#fff;}</style></defs><title>sketch0</title><g id="Camada_3" data-name="Camada 3"><path class="cls-1" d="M584.15,308.52s-27.16,12.15-76.43,7.05c.21-2.87.32-5.75.37-8.64a78.12,78.12,0,0,0-.27-7.92,50.86,50.86,0,0,0,23.95-.23c10.38-2.73,19.35-9,26.87-17.63C561,290,567.26,301.89,584.15,308.52Z"/><path class="cls-1" d="M584.15,308.52s-27.16,12.15-76.43,7.05c.21-2.87.32-5.75.37-8.64a78.12,78.12,0,0,0-.27-7.92,50.86,50.86,0,0,0,23.95-.23c10.38-2.73,19.35-9,26.87-17.63C561,290,567.26,301.89,584.15,308.52Z"/><line class="cls-2" x1="474.04" y1="630.78" x2="473.29" y2="590.16"/><line class="cls-2" x1="605.7" y1="590.16" x2="605.51" y2="595.77"/><rect class="cls-1" x="397.98" y="927.17" width="45.94" height="26.57"/><path class="cls-3" d="M667.92,315.74c-37.09-83.16-83.77-7.22-83.77-7.22-16.89-6.63-23.2-18.5-25.51-27.37a87.15,87.15,0,0,0,9.88-14c1-1.74,2-3.54,2.9-5.38-6.94-17.47-1.25-47.37-1.25-47.37s6.83-2.38,9.19-4.74,10.89-25.55-2.83-30.28-17,11.82-17,11.82C513.72,185.17,496,138,496,138s-10.1,41.7-64.58,65.77c-.59-.33-1.16-.63-1.73-1a12.49,12.49,0,0,0-18.5,10.8c-.12,15.5,6.1,33,12.18,43.29,2.84,9.51,13.89,20.33,20.65,27.24a80.92,80.92,0,0,0,6.82,6.18C427.33,278.36,397.36,275.9,392,336c-1.21-1.45-2.31-2.88-3.37-4.34-10.07-14-15.42-31.83-12.26-48.77,2.81-15.13,12.05-28.66,13.69-44,1.87-17.37-6.24-34.35-6.44-51.81a57.65,57.65,0,0,1,9-31.47c6.17-9.66,15.14-17.39,20.53-27.5,4.83-9.09,6.47-19.57,11-28.8,10.4-21.18,37.16-32.74,59.71-25.81,8.65,2.65,16.69,7.66,25.71,8.41,6.1.5,12.2-1,18.32-1.44a53.41,53.41,0,0,1,46.49,22C581.71,113,585.13,126,593,136.11c7,9.07,17,15.24,25.65,22.8,23.85,20.94,15,49.74,14,77.72-1.2,33.69,34.45,43.22,35.34,74.51C668,312.72,668,314.26,667.92,315.74Z"/><path class="cls-1" d="M584.15,308.52s-27.16,12.15-76.43,7.05c.21-2.87.32-5.75.37-8.64a78.12,78.12,0,0,0-.27-7.92,50.86,50.86,0,0,0,23.95-.23c10.38-2.73,19.35-9,26.87-17.63C561,290,567.26,301.89,584.15,308.52Z"/><path class="cls-1" d="M570.17,214.4s-5.69,29.9,1.25,47.37c-.93,1.84-1.89,3.64-2.9,5.38a87.15,87.15,0,0,1-9.88,14c-7.52,8.62-16.49,14.9-26.87,17.63a50.86,50.86,0,0,1-23.95.23,57.48,57.48,0,0,0-5.79-21.4c-5-9.63-13.45-16.65-26.56-17.06a4,4,0,0,1-2.15-.47,3.86,3.86,0,0,1-1.12-1.66c-5.64-12.85-12-27.16-21.19-38.51a58.58,58.58,0,0,0-17.27-14.85l-2.34-1.3C485.88,179.69,496,138,496,138s17.74,47.18,63.52,53.21c0,0,3.3-16.55,17-11.82s5.2,27.91,2.83,30.28S570.17,214.4,570.17,214.4Z"/><path class="cls-1" d="M584.15,308.52s-27.16,12.15-76.43,7.05c.21-2.87.32-5.75.37-8.64a78.12,78.12,0,0,0-.27-7.92,50.86,50.86,0,0,0,23.95-.23c10.38-2.73,19.35-9,26.87-17.63C561,290,567.26,301.89,584.15,308.52Z"/><path class="cls-4" d="M473.24,310.56q-14.31,26.9-28.62,53.83-9.51,17.88-19,35.77Q417.3,415.75,409,431.32q-11,20.44-22,40.9h-8.44s4.26-34.77,13.42-136.15v0c5.41-60.14,35.38-57.68,58.87-45.73,0,0,0,0,0,0,6.73,5.46,14.13,9.95,21.49,14.75a4.48,4.48,0,0,1,1.59,1.46C474.58,307.79,473.91,309.3,473.24,310.56Z"/><path class="cls-1" d="M508.09,306.93c0,2.89-.16,5.77-.37,8.64-.39,5.82-1.11,11.57-2,17.31-1.67,10.59-4.08,21.05-6.63,31.51-1.5,6.06-3,12.13-4.54,18.21-9.12,37-18,74-29.19,110.45q-3.61,11.82-7.43,23.55c-.9,2.74-1.79,5.47-2.77,8.18q-.36,1-.75,2c-.92,2.48-1.93,5-3.05,7.35-.22.47-.44.94-.67,1.4-.68,1.39-1.4,2.76-2.18,4.11-.37.67-.76,1.32-1.17,2,0,0,0,.05-.05.06-.39.65-.81,1.27-1.25,1.89a43.4,43.4,0,0,1-2.88,3.82,54.51,54.51,0,0,1-10.29,9.34c-9.58,6.74-21.31,11-32.4,13.15-4.24.82-8.72,1.34-12.85,0a20.41,20.41,0,0,1-9.74-7.22c-.23-.29-.45-.58-.65-.89a63.07,63.07,0,0,1-5.5-9.76c-3.61-7.46-7.15-15.15-8-23.4a38.27,38.27,0,0,1,4.39-21.94c4.26-7.87,8.73-15.66,13-23.55,2-3.66,3.93-7.3,5.9-11q11-20.45,22-40.9,8.34-15.56,16.63-31.16,9.53-17.88,19-35.77,14.33-26.94,28.62-53.83c.67-1.26,1.34-2.77.67-4a4.48,4.48,0,0,0-1.59-1.46c-7.36-4.8-14.76-9.29-21.49-14.75,0,0,0,0,0,0a80.92,80.92,0,0,1-6.82-6.18c-6.76-6.91-17.81-17.73-20.65-27.24-6.08-10.29-12.3-27.79-12.18-43.29a12.49,12.49,0,0,1,18.5-10.8c.57.33,1.14.63,1.73,1l2.34,1.3A58.58,58.58,0,0,1,451,219.91c9.22,11.35,15.55,25.66,21.19,38.51a3.86,3.86,0,0,0,1.12,1.66,4,4,0,0,0,2.15.47C488.58,261,497,268,502,277.61a57.48,57.48,0,0,1,5.79,21.4A78.12,78.12,0,0,1,508.09,306.93Z"/><path class="cls-5" d="M596.56,927.17l6.8-267.11H508a62.93,62.93,0,0,0,12.32-20.19c1.84-4.73,12.3-7.44,16.4-9.46q12.63-6.23,25.27-12.54,19.37-9.69,38.67-19.6l10-5.12C643,576.48,642.78,578,674.78,560.69c3.05-1.64,9.62-5.33,17.29-9.84,21.47,20,20.72,58.24,25.57,85.72,13.69,77.77,26.83,155.88,40.08,233.81q4.81,28.39,9.65,56.79Z"/><path class="cls-5" d="M557,560.24,513.3,597.43c-2.43,2.05-4.83,4.11-7.26,6.16-10.08,8.57-20,17.44-30.24,25.73-.59.47-1.19,1-1.76,1.46-17.53,14.77-30.12,35.23-37.21,56.89-3.74,11.37-6,29.79-2.6,44.9a12.49,12.49,0,0,0,20.38,6.59c1.17-1,2.32-2.07,3.51-3.09,8.39-7.32,13.85-17.11,17.76-27.7l5.88,218.8H312.63q13.11-80.89,26.22-161.78c9.25-57.18,17.09-114.62,27.9-171.54,2.27-11.9,5.13-22.93,10.46-32,.2.31.42.6.65.89a20.41,20.41,0,0,0,9.74,7.22c4.13,1.31,8.61.79,12.85,0,11.09-2.16,22.82-6.41,32.4-13.15a54.51,54.51,0,0,0,10.29-9.34A43.4,43.4,0,0,0,446,543.6c.44-.62.86-1.24,1.25-1.89,0,0,0-.05.05-.06.41-.65.8-1.3,1.17-2A189.63,189.63,0,0,1,474,546.46c5.67,1.9,11.28,4,16.83,6.29,4.37,1.79,12.33,7.49,16.89,7.49Z"/><line class="cls-2" x1="474.57" y1="621.04" x2="474.57" y2="660.05"/><line class="cls-2" x1="604.66" y1="621.04" x2="603.35" y2="660.05"/><path class="cls-1" d="M731.88,523.35c-3,4.21-14.67,12.15-26.83,19.7-4.39,2.71-8.85,5.38-13,7.8-7.67,4.51-14.24,8.2-17.29,9.84-32,17.3-31.82,15.79-64.17,32.46l-10,5.12q-19.29,9.91-38.67,19.6-12.62,6.32-25.27,12.54c-4.1,2-14.56,4.73-16.4,9.46A62.93,62.93,0,0,1,508,660.06a42.9,42.9,0,0,1-21,12.86,3.79,3.79,0,0,0-2,.91,3.64,3.64,0,0,0-.75,1.87c-2.11,10.54-4.42,22-8.34,32.67s-9.37,20.38-17.76,27.7c-1.19,1-2.34,2.06-3.51,3.09a12.49,12.49,0,0,1-20.38-6.59c-3.43-15.11-1.14-33.53,2.6-44.9,7.09-21.66,19.68-42.12,37.21-56.89.57-.5,1.17-1,1.76-1.46C486.09,621,496,612.16,506,603.59c2.43-2.05,4.83-4.11,7.26-6.16L557,560.24q15.69-13.35,31.34-26.67c15.06-12.79,39.83-31.52,54.88-44.3l-3.2-5.55,21.89-3,61.91-8.4C732.57,490.91,739.27,512.9,731.88,523.35Z"/><path class="cls-4" d="M729.8,471.52l-6,.82-61.91,8.4-21.89,3,3.2,5.55c-15.05,12.78-39.82,31.51-54.88,44.3q-15.66,13.3-31.34,26.67H507.73c-4.56,0-12.52-5.7-16.89-7.49-5.55-2.27-11.16-4.39-16.83-6.29a189.63,189.63,0,0,0-25.52-6.78c.78-1.35,1.5-2.72,2.18-4.11.23-.46.45-.93.67-1.4,1.12-2.39,2.13-4.87,3.05-7.35q.39-1,.75-2c1-2.71,1.87-5.44,2.77-8.18q3.82-11.73,7.43-23.55c11.17-36.46,20.07-73.44,29.19-110.45,1.5-6.08,3-12.15,4.54-18.21,2.55-10.46,5-20.92,6.63-31.51.91-5.74,1.63-11.49,2-17.31,49.27,5.1,76.43-7.05,76.43-7.05s46.68-75.94,83.77,7.22q1.86,4.17,3.69,8.88C709.23,421.84,729.8,471.52,729.8,471.52Z"/><rect class="cls-1" x="638.97" y="927.17" width="45.94" height="25.53"/><rect class="cls-1" x="397.98" y="927.17" width="45.94" height="26.57"/><polyline class="cls-1" points="625.49 485.71 600.65 400.55 625.49 485.71 640.03 483.72"/><path class="cls-6" d="M597.73,995.31H769.89V952.7H628.61a34.51,34.51,0,0,0-22,7.58c-5.64,4.7-9.12,11.17-9.12,18.32v25.91h.24v-9.2Z"/><path class="cls-7" d="M778.21,952.7h-8.32v42.61h39.42V978.6C809.31,964.31,795.38,952.7,778.21,952.7Z"/><polygon class="cls-8" points="597.73 995.31 597.73 1003.19 809.31 1003.19 809.31 995.31 769.89 995.31 597.73 995.31"/><polygon class="cls-8" points="597.73 1004.51 597.73 1011.08 809.31 1011.08 809.31 1003.19 597.73 1003.19 597.73 1004.51"/><path class="cls-6" d="M485,995.31H312.84V952.7H454.12a34.51,34.51,0,0,1,22,7.58c5.64,4.7,9.12,11.17,9.12,18.32v25.91H485v-9.2Z"/><path class="cls-7" d="M304.53,952.7h8.31v42.61H273.42V978.6C273.42,964.31,287.35,952.7,304.53,952.7Z"/><polygon class="cls-8" points="485 995.31 485 1003.19 273.42 1003.19 273.42 995.31 312.84 995.31 485 995.31"/><polygon class="cls-8" points="485 1004.51 485 1011.08 273.42 1011.08 273.42 1003.19 485 1003.19 485 1004.51"/></g></svg>