<svg xmlns="http://www.w3.org/2000/svg" viewBox="0 0 1080 1080"><defs><style>.cls-1{fill:#db9f8d;}.cls-2{fill:#bdf2d5;}.cls-3{fill:#bf8049;}.cls-4{fill:#d96a6a;}.cls-5{fill:#0f4256;}.cls-6{fill:#fff;}.cls-7{fill:none;stroke:#fff;stroke-miterlimit:10;stroke-width:14px;}</style></defs><title>sketches</title><g id="Camada_12" data-name="Camada 12"><g id="Camada_13" data-name="Camada 13"><polygon class="cls-1" points="825.35 925.54 744.87 925.54 727.75 892.77 808.22 892.77 825.35 925.54"/><path class="cls-2" d="M675.28,975.93,675,956.18c0-8.46,4.12-16.12,10.79-21.67a40.7,40.7,0,0,1,26-9H908.45v50.39H675.28"/><path class="cls-3" d="M420.09,771.85l-98.8,124.48-17.52,21.95s-71-107.89-84.09-258.67c-9.09-105-12.23-172-13.31-202.93,6.76,93.54,25.9,208.37,25.9,208.37l47.18-33.27c4.16,9.75,12.76,26.18,13.86,28.29,8,15.35,22.11,30.55,41.21,25.78,4.38-1.11,14.55-8.13,24.56-15.67Z"/><path class="cls-1" d="M598.32,527.84c-1.19.62-2.41,1.24-3.62,1.88-17.33,9.11-39.06,5.42-57.53,2.21a3.15,3.15,0,0,0-1.75,0,3.43,3.43,0,0,0-1.37,1.33c-8.53,12-23.3,16.75-37.51,16.75-4.45,0-10,7.68-12.9,10.38q-9.11,8.36-18.24,16.67-17.67,16-35.56,31.89c-23.83,21.13-22.54,21.46-46.79,42.1-3.53,3-13.66,11.33-24,19.12-10,7.54-20.18,14.56-24.56,15.67-19.1,4.77-33.22-10.43-41.21-25.78-1.1-2.11-9.7-18.54-13.86-28.29l20.36-14.36L317,605.31l24.21-17.08,1.43,8.42L388.26,572l83.17-45c10.19-5.52,20.54-10.78,30.56-16.56C520,500.05,541.35,496,561.93,497c10.46.55,26.23,4.5,37.47,12.08A10.93,10.93,0,0,1,598.32,527.84Z"/><path class="cls-4" d="M878.91,892H675.28L622.43,730.33S602.66,771.46,587,802.75c-20.87,41.8-39.31,85.22-62.81,125.66-12.9,22.2-30.36,43.12-54.16,52.78-36.73,14.92-82.91,9.6-116.07-11.43-19.75-12.54-50.21-51.34-50.21-51.34l17.52-22.09,99.07-124-.27-.45,152.6-192.3a169.6,169.6,0,0,1,16.07-16.44l0,0,67.27-21.73c30.49,7.91,48.77,38.19,48.77,38.19Z"/><polygon class="cls-5" points="791.87 316.86 715.59 522.13 656.05 541.36 588.78 563.09 588.76 563.11 508.96 588.88 503.63 568 697.5 505.5 770.18 310.02 791.87 316.86"/><path class="cls-5" d="M488.13,183.49c-2.25,18.63-15.19,31.69-12.58,51.82,2.57,19.69,12.61,39.7,7.11,59.78-4,14.44-15.94,26.83-15.17,41.79.37,7.57,4.07,14.51,6.49,21.7a68.15,68.15,0,0,1,.61,41.5c-1.26,4.15-6,36.47-63.56,36.47H300.84c-4.12-11.51-8.13-22.87-11.91-33.72l21.48-47.5S417.29,391,448.16,307.82s4.75-123.5,4.75-123.5S422,250.65,350.8,241.15c0,0-19-28.5-33.25-2.37s9.49,38,9.49,38,6.27,12.1-13.94,33.86c-23.94,25.77-14.55,36.22-26.42,52.85-3.6,5-8.41,8-13.89,10-27-29.1-67.35-5.71-67.37,63.08H190.3s-70.07-7.7-65.13-62.23c1.4-15.49.64-22.05,5.81-31.72s15.66-14.83,22.59-23.32c6.19-7.57,10.66-16.93,10.62-26.69-.05-10-4.82-19.6-4.9-29.64a32.22,32.22,0,0,1,5.16-17.69c6-9.23,16.21-14.71,24.08-22.42C204.66,207,206.79,182,218,162.89c8-13.65,19.37-25.85,34-32,9.08-3.81,19-5.13,28.37-8.19,21.76-7.12,39.74-23.38,61.74-29.75,24.5-7.11,50.94-.55,72.23,12.54a127.46,127.46,0,0,1,28.57,24.55c1.61,1.81,10.34,16.08,12.42,16.24C473.46,147.73,490.43,164.58,488.13,183.49Z"/><path class="cls-1" d="M448.16,307.82C417.29,391,310.41,355.33,310.41,355.33l-21.48,47.5-.7-2c-4.09-11.76-9.42-20.84-15.44-27.32,5.48-2,10.29-5,13.89-10,11.87-16.63,2.48-27.08,26.42-52.85C333.31,288.88,327,276.78,327,276.78s-23.75-11.87-9.49-38,33.25,2.37,33.25,2.37c71.23,9.5,102.11-56.83,102.11-56.83S479,224.69,448.16,307.82Z"/><path class="cls-3" d="M353.52,579.55l-12.32,8.68L317,605.31l-17.18,12.11-20.36,14.36-47.18,33.27s-19.14-114.83-25.9-208.37c-.46-13.48-.53-20.13-.53-20.13h-.42c0-68.79,40.4-92.18,67.37-63.08,6,6.48,11.35,15.56,15.44,27.32l.7,2c3.78,10.85,7.79,22.21,11.91,33.72C325.47,505.52,353.52,579.55,353.52,579.55Z"/><path d="M206.37,456.68c-.18-2.58-.35-5.15-.53-7.7q-.42-6.44-.42-12.43h.42S205.91,443.2,206.37,456.68Z"/><path class="cls-6" d="M955.08,956.18v19.75H908.45V925.54h9.84C938.6,925.54,955.08,939.26,955.08,956.18Z"/><rect x="675.28" y="975.93" width="279.8" height="13.99"/></g><g id="Camada_14" data-name="Camada 14"><polygon class="cls-7" points="825.35 925.54 744.87 925.54 727.75 892.77 808.22 892.77 825.35 925.54"/><path class="cls-7" d="M675.28,975.93,675,956.18c0-8.46,4.12-16.12,10.79-21.67a40.7,40.7,0,0,1,26-9H908.45v50.39H675.28"/><path class="cls-7" d="M420.09,771.85l-98.8,124.48-17.52,21.95s-71-107.89-84.09-258.67c-9.09-105-12.23-172-13.31-202.93,6.76,93.54,25.9,208.37,25.9,208.37l47.18-33.27c4.16,9.75,12.76,26.18,13.86,28.29,8,15.35,22.11,30.55,41.21,25.78,4.38-1.11,14.55-8.13,24.56-15.67Z"/><path class="cls-7" d="M598.32,527.84c-1.19.62-2.41,1.24-3.62,1.88-17.33,9.11-39.06,5.42-57.53,2.21a3.15,3.15,0,0,0-1.75,0,3.43,3.43,0,0,0-1.37,1.33c-8.53,12-23.3,16.75-37.51,16.75-4.45,0-10,7.68-12.9,10.38q-9.11,8.36-18.24,16.67-17.67,16-35.56,31.89c-23.83,21.13-22.54,21.46-46.79,42.1-3.53,3-13.66,11.33-24,19.12-10,7.54-20.18,14.56-24.56,15.67-19.1,4.77-33.22-10.43-41.21-25.78-1.1-2.11-9.7-18.54-13.86-28.29l20.36-14.36L317,605.31l24.21-17.08,1.43,8.42L388.26,572l83.17-45c10.19-5.52,20.54-10.78,30.56-16.56C520,500.05,541.35,496,561.93,497c10.46.55,26.23,4.5,37.47,12.08A10.93,10.93,0,0,1,598.32,527.84Z"/><path class="cls-7" d="M878.91,892H675.28L622.43,730.33S602.66,771.46,587,802.75c-20.87,41.8-39.31,85.22-62.81,125.66-12.9,22.2-30.36,43.12-54.16,52.78-36.73,14.92-82.91,9.6-116.07-11.43-19.75-12.54-50.21-51.34-50.21-51.34l17.52-22.09,99.07-124-.27-.45,152.6-192.3a169.6,169.6,0,0,1,16.07-16.44l0,0,67.27-21.73c30.49,7.91,48.77,38.19,48.77,38.19Z"/><polygon class="cls-7" points="791.87 316.86 715.59 522.13 656.05 541.36 588.78 563.09 588.76 563.11 508.96 588.88 503.63 568 697.5 505.5 770.18 310.02 791.87 316.86"/><path class="cls-7" d="M488.13,183.49c-2.25,18.63-15.19,31.69-12.58,51.82,2.57,19.69,12.61,39.7,7.11,59.78-4,14.44-15.94,26.83-15.17,41.79.37,7.57,4.07,14.51,6.49,21.7a68.15,68.15,0,0,1,.61,41.5c-1.26,4.15-6,36.47-63.56,36.47H300.84c-4.12-11.51-8.13-22.87-11.91-33.72l21.48-47.5S417.29,391,448.16,307.82s4.75-123.5,4.75-123.5S422,250.65,350.8,241.15c0,0-19-28.5-33.25-2.37s9.49,38,9.49,38,6.27,12.1-13.94,33.86c-23.94,25.77-14.55,36.22-26.42,52.85-3.6,5-8.41,8-13.89,10-27-29.1-67.35-5.71-67.37,63.08H190.3s-70.07-7.7-65.13-62.23c1.4-15.49.64-22.05,5.81-31.72s15.66-14.83,22.59-23.32c6.19-7.57,10.66-16.93,10.62-26.69-.05-10-4.82-19.6-4.9-29.64a32.22,32.22,0,0,1,5.16-17.69c6-9.23,16.21-14.71,24.08-22.42C204.66,207,206.79,182,218,162.89c8-13.65,19.37-25.85,34-32,9.08-3.81,19-5.13,28.37-8.19,21.76-7.12,39.74-23.38,61.74-29.75,24.5-7.11,50.94-.55,72.23,12.54a127.46,127.46,0,0,1,28.57,24.55c1.61,1.81,10.34,16.08,12.42,16.24C473.46,147.73,490.43,164.58,488.13,183.49Z"/><path class="cls-7" d="M448.16,307.82C417.29,391,310.41,355.33,310.41,355.33l-21.48,47.5-.7-2c-4.09-11.76-9.42-20.84-15.44-27.32,5.48-2,10.29-5,13.89-10,11.87-16.63,2.48-27.08,26.42-52.85C333.31,288.88,327,276.78,327,276.78s-23.75-11.87-9.49-38,33.25,2.37,33.25,2.37c71.23,9.5,102.11-56.83,102.11-56.83S479,224.69,448.16,307.82Z"/><path class="cls-7" d="M353.52,579.55l-12.32,8.68L317,605.31l-17.18,12.11-20.36,14.36-47.18,33.27s-19.14-114.83-25.9-208.37c-.46-13.48-.53-20.13-.53-20.13h-.42c0-68.79,40.4-92.18,67.37-63.08,6,6.48,11.35,15.56,15.44,27.32l.7,2c3.78,10.85,7.79,22.21,11.91,33.72C325.47,505.52,353.52,579.55,353.52,579.55Z"/><path class="cls-7" d="M206.37,456.68c-.18-2.58-.35-5.15-.53-7.7q-.42-6.44-.42-12.43h.42S205.91,443.2,206.37,456.68Z"/><path class="cls-7" d="M955.08,956.18v19.75H908.45V925.54h9.84C938.6,925.54,955.08,939.26,955.08,956.18Z"/><rect class="cls-7" x="675.28" y="975.93" width="279.8" height="13.99"/></g></g></svg>