<svg xmlns="http://www.w3.org/2000/svg" viewBox="0 0 1080 1080"><defs><style>.cls-1,.cls-2{fill:#db9f8d;}.cls-1,.cls-10,.cls-2,.cls-3,.cls-4,.cls-5,.cls-6,.cls-7,.cls-8,.cls-9{stroke:#000;stroke-width:14px;}.cls-1,.cls-10,.cls-2,.cls-3,.cls-4,.cls-5,.cls-6,.cls-7,.cls-8{stroke-linecap:round;}.cls-1,.cls-10,.cls-5,.cls-6,.cls-8,.cls-9{stroke-miterlimit:10;}.cls-2,.cls-3,.cls-4,.cls-7{stroke-linejoin:round;}.cls-3{fill:#bcedca;}.cls-4{fill:#f7df99;}.cls-5{fill:#d96a6a;}.cls-6{fill:#b76480;}.cls-7{fill:#23637a;}.cls-8{fill:#bf8049;}.cls-10,.cls-9{fill:#fff;}</style></defs><title>sketch1</title><g id="Camada_7" data-name="Camada 7"><g id="Camada_8" data-name="Camada 8"><polygon class="cls-1" points="718.71 861.01 718.46 860.54 718.47 860.54 718.71 861.01"/><polygon class="cls-2" points="814.7 892.85 735.35 892.85 718.71 861.01 798.05 861.01 814.7 892.85"/><path class="cls-3" d="M666.74,942.53H867.51V892.85H702.75a40.13,40.13,0,0,0-25.65,8.84c-6.58,5.47-10.64,13-10.64,21.36v30.21h.28V942.53Z"/><path class="cls-4" d="M409.69,731.81C376,767.07,340,800.29,303.22,832.44l-18.7,17.75-7.73,7.34S230.4,779.3,217.53,630.64l-8.32-127q2.22,10.81,4.79,21.24a.1.1,0,0,0,0,.07,770,770,0,0,0,31.83,99.82h0l32.7-16.86,12.6-6.5c.4.87.83,1.79,1.27,2.76,6.67,14.33,17.35,38.25,18.32,39.83a66.91,66.91,0,0,0,10.34,13.23c8.32,8.09,19,13.1,31.3,9.15,2.62-.85,7.32-4.11,12.74-8.39Z"/><polygon class="cls-5" points="718.71 861.01 718.46 860.54 718.47 860.54 718.71 861.01"/><path class="cls-5" d="M647.78,513.4c.37.09.73.2,1.1.31l-1.1.35-66.33,21.43h0l-.92.29c.31-.29.63-.56.94-.84Z"/><path class="cls-6" d="M614.63,700.75,666.74,861H867.51L695.85,551.26s-17.58-29.29-47-37.55l-1.11.34-66.33,21.43h0l-.93.3a170.13,170.13,0,0,0-14.92,15.47q-7.87,9.22-15.71,18.46Q499.13,629.36,448.37,689q-18.69,22-38.69,42.82C376,767.08,340,800.28,303.22,832.44l-18.7,17.75-7.73,7.33s35.95,60.17,73.15,80.59c34,18.65,78.23,26.12,114.45,11.32,23.47-9.57,40.67-30.3,53.39-52.31C541,857,559.13,814,579.71,772.53c15.42-31,34.92-71.78,34.92-71.78"/><polygon class="cls-7" points="781.68 292.7 706.48 495.1 648.88 513.71 647.78 514.06 581.45 535.49 581.43 535.5 580.51 535.79 502.75 560.91 497.49 540.33 688.64 478.7 760.3 285.96 781.68 292.7"/><path class="cls-8" d="M270.8,376.31c-.6-.42-1.2-.83-1.81-1.22A4.27,4.27,0,0,1,270.8,376.31Z"/><path class="cls-7" d="M457.84,202.08c-2,16.57-13.5,28.17-11.17,46.07,2.27,17.5,11.2,35.28,6.32,53.12-3.52,12.84-14.17,23.84-13.5,37.14.33,6.73,3.62,12.91,5.78,19.29a60.63,60.63,0,0,1,.55,36.88c-1.13,3.69-5.38,32.41-56.5,32.41H302.1c-3.3-7.4-6.5-14.69-9.56-21.73-.27-.61-.52-1.21-.79-1.81a80.67,80.67,0,0,0-4.57-9l16.38-38.6.06,0,.16,0,.11,0c2,.54,4.66,1.21,7.87,1.91.58.13,1.18.26,1.8.38l1.63.33c.74.14,1.5.29,2.29.42,1.4.26,2.86.5,4.39.73,1.18.19,2.4.36,3.65.52,2,.25,4,.48,6.08.67,1.45.13,2.92.25,4.43.34.2,0,.39,0,.57,0,1,.06,1.95.1,2.94.15a132.3,132.3,0,0,0,16.77-.46c.64-.05,1.28-.13,1.93-.2a99.43,99.43,0,0,0,11.92-2.06l1.29-.32c.85-.22,1.72-.44,2.57-.68l1.27-.38c1.71-.52,3.4-1.08,5.08-1.72l1.25-.47c.42-.17.84-.33,1.25-.51q2.49-1,4.94-2.26c.39-.19.79-.4,1.17-.61s.49-.24.72-.37l1.22-.68.83-.47.85-.51c1.66-1,3.29-2.07,4.89-3.24l.88-.66a65.78,65.78,0,0,0,7.54-6.64c.34-.36.69-.71,1-1.08a66.94,66.94,0,0,0,6.58-8.27q.47-.66.9-1.35a75.7,75.7,0,0,0,4.14-7.24c.27-.52.52-1.05.78-1.59,1.07-2.26,2.07-4.61,3-7.11,27.46-73.88,4.22-109.76,4.22-109.76s-27.44,58.94-90.75,50.52c0,0-16.89-25.35-29.54-2.11S314.67,285,314.67,285s5.57,10.76-12.39,30.1C281,338,289.36,347.28,278.8,362.05a3.11,3.11,0,0,1-.32.42c-3.16,3.88-11.29,7.22-16.31,9.07-17.58-7.23-37.15-1.27-49.45,16.88-6.47,9.53-10.93,22.44-12.05,38.57h-7.53s-62.26-6.83-57.87-55.3c1.24-13.78.57-19.6,5.17-28.2s13.91-13.17,20.07-20.71c5.49-6.73,9.47-15.06,9.43-23.73,0-8.92-4.27-17.42-4.35-26.35A28.68,28.68,0,0,1,170.18,257c5.32-8.21,14.41-13.07,21.4-19.92,14.33-14.07,16.23-36.31,26.18-53.29,7.1-12.12,17.2-23,30.18-28.39,8.07-3.39,16.9-4.58,25.2-7.29,19.35-6.33,35.34-20.78,54.88-26.43,21.77-6.32,45.27-.5,64.2,11.13a114.32,114.32,0,0,1,25.39,21.81c1.43,1.63,9.18,14.3,11,14.45C444.8,170.31,459.88,185.28,457.84,202.08Z"/><path class="cls-2" d="M422.31,312.59c-.91,2.5-1.91,4.85-3,7.11-.26.54-.51,1.07-.78,1.59a75.7,75.7,0,0,1-4.14,7.24c-.3.47-.59.91-.9,1.35a66.94,66.94,0,0,1-6.58,8.27c-.33.37-.68.72-1,1.08a65.78,65.78,0,0,1-7.54,6.64l-.88.66c-1.6,1.17-3.23,2.24-4.89,3.24l-.85.51-.83.47-1.22.68c-.23.13-.47.25-.72.37s-.78.42-1.17.61q-2.44,1.23-4.94,2.26c-.41.18-.83.34-1.25.51l-1.25.47c-1.68.64-3.37,1.2-5.08,1.72l-1.27.38c-.85.24-1.72.46-2.57.68l-1.29.32a99.43,99.43,0,0,1-11.92,2.06l-1.93.2a132.3,132.3,0,0,1-16.77.46c-1-.05-2-.09-2.94-.15-.18,0-.37,0-.57,0-1.51-.09-3-.21-4.43-.34-2.09-.19-4.12-.42-6.08-.67-1.25-.16-2.47-.33-3.65-.52-1.53-.23-3-.47-4.39-.73-.79-.13-1.55-.28-2.29-.42l-1.63-.33c-.62-.12-1.22-.25-1.8-.38-3.21-.7-5.87-1.37-7.87-1.91l-.11,0-.16,0-.06,0-16.38,38.6c-1-1.66-2-3.25-3.08-4.74a58.37,58.37,0,0,0-8.71-9.8c-.23-.22-.45-.42-.67-.6-1.28-1.09-2.59-2.12-3.92-3a4.27,4.27,0,0,0-1.81-1.22,44.33,44.33,0,0,0-6.82-3.55c5-1.85,13.15-5.19,16.31-9.07a3.11,3.11,0,0,0,.32-.42C289.36,347.28,281,338,302.28,315.1c18-19.34,12.39-30.1,12.39-30.1s-21.09-10.55-8.43-33.76,29.54,2.11,29.54,2.11c63.31,8.42,90.75-50.52,90.75-50.52S449.77,238.71,422.31,312.59Z"/><path class="cls-4" d="M363.78,561.16l-12.57,7.07-1,.58h0l-26.72,15.07-11,6.19,0,0-7.91,4.46-13.36,6.87-12.6,6.5-32.7,16.86h0A770.35,770.35,0,0,1,214,525a.07.07,0,0,1,0-.06c-1.7-6.94-3.31-14-4.8-21.24v-.08a463.06,463.06,0,0,1-7.75-50.83c-.52-11.9-.57-17.77-.57-17.77s-.37-5.41-.2-8c1.12-16.13,5.58-29,12.05-38.57,12.3-18.15,31.87-24.11,49.45-16.88a44.33,44.33,0,0,1,6.82,3.55c.61.39,1.21.8,1.81,1.22,1.33.92,2.64,1.95,3.92,3,.22.18.44.38.67.6a58.37,58.37,0,0,1,8.71,9.8c1.06,1.49,2.09,3.08,3.08,4.74a80.67,80.67,0,0,1,4.57,9c.27.6.52,1.2.79,1.81,3.06,7,6.26,14.33,9.56,21.73,1.17,2.65,2.37,5.32,3.56,8C332.84,495.84,363.78,561.16,363.78,561.16Z"/><path class="cls-1" d="M419.33,319.7C389.74,382.55,308.51,357.48,303.78,356,321.22,360.74,392.45,376.27,419.33,319.7Z"/><path class="cls-9" d="M877.21,892.85h-9.7v49.69h46V923.06C913.49,906.38,897.24,892.85,877.21,892.85Z"/><polygon class="cls-10" points="666.74 942.53 666.74 951.73 913.49 951.73 913.49 942.53 867.51 942.53 666.74 942.53"/><polygon class="cls-10" points="666.74 953.26 666.74 960.92 913.49 960.93 913.49 951.73 666.74 951.73 666.74 953.26"/><path class="cls-2" d="M598.38,496.16l-3.4,2c-16.25,10-37.56,7.77-55.7,5.83a3.07,3.07,0,0,0-1.7.12,3.26,3.26,0,0,0-1.24,1.38c-7.52,12.2-21.55,17.75-35.34,18.65-4.32.29-9.18,8.09-11.86,10.91q-8.31,8.7-16.65,17.34Q456.38,569.15,440,585.68c-21.78,22-20.51,22.27-42.73,43.85-3.24,3.15-12.54,11.87-22,20.09-3.43,3-6.9,5.87-10.12,8.4-5.41,4.27-10.11,7.54-12.73,8.38-12.29,4-23-1.06-31.3-9.15A66.85,66.85,0,0,1,310.76,644c-1-1.58-11.65-25.51-18.32-39.84-.44-1-.87-1.88-1.27-2.76l13.36-6.88,7.91-4.46h0l11-6.21,26.71-15.07h0l1-.56,3.35,11.06q21.36-13.44,42.72-26.89,38.94-24.49,77.85-49c9.54-6,19.25-11.77,28.62-18,16.78-11.19,37.29-16.52,57.33-16.78,10.2-.14,25.74,2.68,37.14,9.33A10.63,10.63,0,0,1,598.38,496.16Z"/><line class="cls-5" x1="599.07" y1="652.9" x2="614.63" y2="700.75"/></g></g></svg>