<svg xmlns="http://www.w3.org/2000/svg" viewBox="0 0 1080 1080"><defs><style>.cls-1{fill:#db9f8d;}.cls-1,.cls-2,.cls-3,.cls-4,.cls-5,.cls-6,.cls-7{stroke:#000;stroke-linecap:round;stroke-width:14px;}.cls-1,.cls-2,.cls-4,.cls-5,.cls-6,.cls-7{stroke-linejoin:round;}.cls-2{fill:#bcedca;}.cls-3{fill:#b76480;stroke-miterlimit:10;}.cls-4{fill:#23637a;}.cls-5{fill:#f7df99;}.cls-6{fill:#fff;}</style></defs><g id="Camada_4" data-name="Camada 4"><rect class="cls-1" x="647.05" y="827.07" width="87.12" height="43.96" transform="translate(-213.69 232.56) rotate(-16.59)"/><path class="cls-2" d="M432.31,371.57c8.4-6.64-22.09-40.75-32.77-53.14S372,274.09,372,274.09L343.4,298.74s25.16,18.17,40.63,34.73S425.2,377.2,432.31,371.57Z"/><polygon class="cls-3" points="329.19 281.3 302.45 259.39 310.68 253.52 315.83 238.76 319.54 239.22 324.33 225.4 334.81 216.36 357.77 256.65 329.19 281.3"/><polygon class="cls-4" points="343.4 298.74 329.15 281.21 357.73 256.56 371.98 274.09 343.4 298.74"/><path class="cls-5" d="M671.26,324S630.08,344.81,627,340.69c0,0-1,267.31-9.27,353.31H759.8S741.27,381.69,671.26,324Z"/><path class="cls-4" d="M574.79,389.34c-17.18-2.52-34.15-12.17-41.46-27.93-6-13-4.82-28.23-.83-42,3.8-13.1,5.64-22.34-2.09-34.05-5.46-8.26-16.27-19.06-17.13-29.38-1.27-15.53,7.1-29.59,11.69-43.72,4.7-14.45-1.23-25.1-.32-39.12.91-14.21,15.72-24.27,29.27-22.8,3.58.39,11.85-10.78,15.12-13.09a92.07,92.07,0,0,1,36.16-15.61c14-2.53,29.1-.74,41.28,6.65,12.6,7.64,21.29,20.58,33.87,28.25,6.87,4.19,14.63,6.65,21.88,10.15s14.29,8.42,17.73,15.69c6.79,14.35-2.58,32.22,3.37,46.93,5,12.36,19.13,18.47,26.4,29.65a31.45,31.45,0,0,1,4.44,23.09c-2.3,11.47-9.4,20.84-7.33,33s9.95,22.23,13.83,33.7c3.41,10.07,3.35,22.12-3.38,30.36-11,13.46-32.08,11.32-47.52,11.86-21.73.77-43.45-.89-65.18-.88-19.77,0-39.53-.23-59.3-.61C581.89,389.5,578.17,389.84,574.79,389.34Z"/><path class="cls-1" d="M535.61,271.5c5.23,30.78,29.36,47.86,58.65,52.89a130.58,130.58,0,0,0,22.85,1.8c2.48,0,10-1.32,10-.45.19,1.79,8.48,34.56,9.86,40.81,6.36-7.23,35.74-21,45.31-23-21.52-20-41.6-43.7-54.74-72.45-3.77-8.23,5.08-3.17,10.45-8.24,7.8-7.36,8.69-27.61-3.5-34.53-8.77-5-13.7,5.49-20.59,7.42-11.69,3.28-28-7.2-36.94-14-13.28-10.2-23.27-25.58-27.87-41.66C529,203.94,530.71,243,535.61,271.5Z"/><path class="cls-5" d="M550.88,465.93l8.24,8.69.66.71h0l17.5,18.5,7.22,7.61,0,0,5.18,5.47,8.92,8.73,8.41,8.25,21.82,21.38h0a640.29,640.29,0,0,0,49.7-71.41.05.05,0,0,0,0,0c3-5.09,6.07-10.33,9-15.68l0-.06a384,384,0,0,0,18.59-38.44c3.33-9.32,4.81-14,4.81-14s1.62-4.2,2.12-6.3c3.06-13.07,2.69-24.41-.12-33.56-5.31-17.41-19.38-26.93-35.1-25.5a37.13,37.13,0,0,0-6.28,1.15c-.58.16-1.16.33-1.73.52a40.55,40.55,0,0,0-3.87,1.45c-.21.09-.43.2-.67.32a47.51,47.51,0,0,0-9.31,5.64c-1.21.92-2.42,1.93-3.61,3a68,68,0,0,0-5.82,6l-1.07,1.24c-4.15,4.83-8.48,9.84-12.91,14.9-1.58,1.82-3.18,3.64-4.79,5.48C591.43,421.68,550.88,465.93,550.88,465.93Z"/><path class="cls-1" d="M476.66,392.81q24.88,29,49.78,58,13.65,15.92,27.31,31.8l5.37-7.95s.66.69.68.7l17.5,18.49,7.24,7.65,5.18,5.47,8.92,8.74L597,517.55c-8.8,9.74-23.13,26.11-24.29,27.13a56,56,0,0,1-11.44,8c-8.59,4.38-18.29,5.74-27.08-.41-1.87-1.31-4.81-5.05-8-9.77-1.94-2.79-4-6-6-9.14-5.53-8.85-10.78-18.05-12.57-21.34-12.35-22.57-11.28-22.45-23.17-45.26q-8.72-16.73-17.16-33.57c-3-5.94-6.07-11.84-8.93-17.84-1.67-3.51-3.27-10.8-7.24-12.32-12.1-4.65-27.42,1.14-37.26-9-4-4.15-6.46-9.57-8.36-15-3.45-9.89-5.32-21.05-1.15-30.65a10.13,10.13,0,0,1,2.52-3.77A11,11,0,0,1,410,342.8c5.27-2.06,14.8-5.19,20.37-2.66,11.33,5.15,33.95,38.39,35,40.15C469.12,386.58,478,394.27,476.66,392.81Z"/><path class="cls-3" d="M385.19,923.56a41.9,41.9,0,0,1-6.86-8.93c-20.16-35.36,5.16-88.08,34.11-110.91,54-42.58,201.79-130.9,207-131.26,48.08-3.26,89.18-7.06,137.27-10.32,5.33,23.57,12,56.42,10,80.51s-9.6,41.58-30.08,54.43c-10.75,6.75-23.33,9.83-35.67,12.81-71.32,17.23-121.4,30.78-192.72,48,62.38-14.21,104-27.85,166.43-42.06-2.58,35.47-5.67,74-8.25,109.49-80,3.22-160,31.69-238.71,17.15C412.3,939.61,396,934.33,385.19,923.56Z"/><path class="cls-6" d="M763.43,882.82l.37,25.72,0,1.59v.19l-.17,7.14-.23.12.21-.12h0l.17-6.81s0-.09,0-.11l0-.24h0V908.4Z"/><path class="cls-2" d="M762.19,803.19l0,0,.08.15,0,.24,0,3v0l.25,28-.15,2h0l.83,46.24.43,25.56v2.06s0,0,0,0l-.21,6.7-.11.32-30.53,16.48-18.89-35,10.71-5.78-1-36.1-1.46-26.38a31.79,31.79,0,0,1,7.58-20.14c4.49-5.11,10.52-8.12,17.13-7.94Z"/><path class="cls-6" d="M763.43,882.82l.37,25.72,0,1.78c0,.07,0,.14,0,.19l.07-2.08Z"/><path class="cls-6" d="M712.88,899.64l18.89,35L700,951.81l-7.39-13.68c-6.3-11.67-.12-27.46,13.9-35Z"/><path class="cls-7" d="M762.16,803.54l-.2,0v.17l.16-.19.11,3.16,0,0,1.14,97.17a22.56,22.56,0,0,1-11.83,20.09L700,951.81h0a14.46,14.46,0,0,0,19.6,5.85L763.33,934a27.1,27.1,0,0,0,14.22-24l-.75-106.35Zm8.43,110.15h0l0,0Z"/></g></svg>